<svg width="981" height="3104" viewBox="0 0 981 3104" fill="none" xmlns="http://www.w3.org/2000/svg">
<path d="M838.5 722.5L836.973 721.208L838.5 722.5ZM179.5 1023.5L179.643 1025.49L179.691 1025.49L179.739 1025.49L179.5 1023.5ZM813.5 2380.5L811.612 2379.84L813.5 2380.5ZM112.009 3099.81C111.903 3100.91 112.708 3101.88 113.807 3101.99L131.724 3103.72C132.823 3103.83 133.801 3103.03 133.907 3101.93C134.013 3100.83 133.208 3099.85 132.109 3099.74L116.183 3098.2L117.725 3082.28C117.831 3081.18 117.026 3080.2 115.926 3080.09C114.827 3079.99 113.85 3080.79 113.743 3081.89L112.009 3099.81ZM115.271 3101.54C117.809 3099.45 123.276 3096.14 131.496 3091.51L129.53 3088.02C121.403 3092.61 115.594 3096.1 112.729 3098.46L115.271 3101.54ZM166.17 3072.36C176.458 3066.68 188.033 3060.24 200.704 3053.01L198.721 3049.53C186.072 3056.75 174.515 3063.19 164.237 3068.86L166.17 3072.36ZM235.01 3033.01C245.737 3026.62 256.983 3019.78 268.669 3012.49L266.552 3009.1C254.891 3016.37 243.668 3023.19 232.963 3029.57L235.01 3033.01ZM302.082 2991.15C312.808 2984.13 323.807 2976.78 335.029 2969.07L332.765 2965.77C321.569 2973.46 310.594 2980.8 299.892 2987.8L302.082 2991.15ZM367.325 2946.34C377.797 2938.79 388.41 2930.95 399.129 2922.81L396.712 2919.63C386.019 2927.74 375.431 2935.56 364.985 2943.1L367.325 2946.34ZM430.369 2898.5C440.526 2890.39 450.742 2882.02 460.989 2873.39L458.412 2870.33C448.193 2878.94 438.003 2887.28 427.873 2895.37L430.369 2898.5ZM490.937 2847.48C500.688 2838.82 510.439 2829.91 520.164 2820.77L517.425 2817.86C507.727 2826.97 498.003 2835.85 488.279 2844.5L490.937 2847.48ZM548.621 2793.24C557.887 2784.01 567.106 2774.56 576.255 2764.89L573.349 2762.14C564.228 2771.78 555.037 2781.21 545.798 2790.41L548.621 2793.24ZM603.01 2735.7C611.71 2725.91 620.323 2715.9 628.829 2705.68L625.754 2703.12C617.277 2713.31 608.692 2723.28 600.02 2733.04L603.01 2735.7ZM653.65 2674.83C661.698 2664.47 669.625 2653.91 677.411 2643.15L674.17 2640.8C666.411 2651.53 658.512 2662.05 650.492 2672.37L653.65 2674.83ZM700.047 2610.64C707.354 2599.74 714.509 2588.64 721.494 2577.34L718.091 2575.23C711.132 2586.49 704.004 2597.55 696.724 2608.42L700.047 2610.64ZM741.688 2543.24C748.166 2531.82 754.465 2520.2 760.568 2508.39L757.015 2506.55C750.935 2518.32 744.661 2529.89 738.209 2541.27L741.688 2543.24ZM778.04 2472.88C783.592 2461 788.944 2448.94 794.079 2436.69L790.391 2435.15C785.276 2447.34 779.946 2459.35 774.417 2471.18L778.04 2472.88ZM808.641 2399.88C810.947 2393.69 813.196 2387.45 815.389 2381.16L811.612 2379.84C809.428 2386.1 807.188 2392.32 804.892 2398.49L808.641 2399.88ZM815.389 2381.16C817.642 2374.7 819.872 2368.24 822.079 2361.8L818.295 2360.5C816.09 2366.94 813.862 2373.39 811.612 2379.84L815.389 2381.16ZM835.05 2323.2C839.322 2310.25 843.502 2297.32 847.588 2284.44L843.775 2283.23C839.693 2296.1 835.519 2309.01 831.251 2321.95L835.05 2323.2ZM859.666 2245.57C863.643 2232.51 867.523 2219.48 871.306 2206.51L867.466 2205.39C863.687 2218.35 859.812 2231.36 855.839 2244.41L859.666 2245.57ZM882.451 2167.4C886.122 2154.22 889.69 2141.09 893.157 2128.02L889.291 2127C885.828 2140.05 882.264 2153.16 878.597 2166.33L882.451 2167.4ZM903.319 2088.72C906.668 2075.42 909.91 2062.18 913.043 2049.01L909.152 2048.09C906.022 2061.24 902.785 2074.46 899.44 2087.74L903.319 2088.72ZM922.159 2009.56C925.166 1996.13 928.059 1982.79 930.836 1969.52L926.921 1968.7C924.147 1981.95 921.259 1995.28 918.256 2008.68L922.159 2009.56ZM938.876 1929.72C941.496 1916.25 943.994 1902.88 946.369 1889.6L942.432 1888.9C940.06 1902.15 937.566 1915.51 934.949 1928.96L938.876 1929.72ZM953.235 1849.43C955.43 1835.95 957.495 1822.58 959.428 1809.33L955.47 1808.75C953.54 1821.98 951.479 1835.33 949.287 1848.79L953.235 1849.43ZM964.987 1768.77C966.726 1755.19 968.322 1741.75 969.774 1728.45L965.798 1728.01C964.348 1741.29 962.755 1754.71 961.019 1768.26L964.987 1768.77ZM973.801 1687.89C975.027 1674.13 976.091 1660.55 976.995 1647.14L973.004 1646.87C972.102 1660.25 971.04 1673.8 969.817 1687.53L973.801 1687.89ZM979.259 1606.61C979.866 1592.82 980.292 1579.25 980.537 1565.89L976.537 1565.82C976.293 1579.14 975.868 1592.68 975.263 1606.44L979.259 1606.61ZM980.712 1524.97C980.569 1511.12 980.217 1497.54 979.655 1484.24L975.658 1484.41C976.219 1497.66 976.57 1511.2 976.712 1525.01L980.712 1524.97ZM977.22 1443.7C976.131 1429.85 974.791 1416.35 973.2 1403.21L969.229 1403.69C970.813 1416.77 972.147 1430.22 973.233 1444.01L977.22 1443.7ZM967.297 1362.7C964.917 1348.86 962.22 1335.49 959.205 1322.63L955.311 1323.54C958.306 1336.32 960.987 1349.61 963.355 1363.38L967.297 1362.7ZM948.479 1283.21C944.248 1269.73 939.597 1256.92 934.525 1244.85L930.837 1246.39C935.857 1258.35 940.465 1271.03 944.663 1284.41L948.479 1283.21ZM916.581 1208.23C909.49 1195.82 901.8 1184.47 893.509 1174.25L890.402 1176.77C898.544 1186.81 906.113 1197.97 913.109 1210.21L916.581 1208.23ZM864.518 1145.14C853.654 1136.41 842.015 1129.21 829.602 1123.63L827.962 1127.28C840.051 1132.71 851.4 1139.73 862.012 1148.26L864.518 1145.14ZM790.338 1111.9C777.333 1109.78 763.673 1109.16 749.358 1110.09L749.618 1114.08C763.651 1113.17 777.009 1113.78 789.697 1115.85L790.338 1111.9ZM708.72 1116.51C696.115 1119.6 683.078 1123.75 669.608 1129L671.06 1132.73C684.382 1127.54 697.252 1123.44 709.672 1120.4L708.72 1116.51ZM632.391 1145.75C620.862 1151.6 609.047 1158.2 596.947 1165.54L599.023 1168.96C611.044 1161.66 622.77 1155.12 634.202 1149.32L632.391 1145.75ZM562.948 1187.67C557.295 1191.59 551.585 1195.66 545.818 1199.89L548.182 1203.11C553.923 1198.91 559.604 1194.85 565.226 1190.96L562.948 1187.67ZM545.818 1199.89C540.123 1204.06 534.459 1208.11 528.824 1212.04L531.112 1215.32C536.773 1211.37 542.463 1207.31 548.182 1203.11L545.818 1199.89ZM494.886 1234.5C483.065 1241.9 471.39 1248.77 459.87 1255.12L461.802 1258.63C473.388 1252.24 485.126 1245.33 497.008 1237.89L494.886 1234.5ZM423.367 1273.82C410.634 1279.84 398.113 1285.23 385.814 1290.02L387.266 1293.74C399.654 1288.92 412.261 1283.5 425.076 1277.44L423.367 1273.82ZM347.245 1303.34C333.777 1307.39 320.615 1310.72 307.776 1313.36L308.583 1317.28C321.542 1314.61 334.819 1311.26 348.397 1307.17L347.245 1303.34ZM267.481 1319.6C253.401 1321.05 239.782 1321.65 226.649 1321.49L226.6 1325.49C239.889 1325.65 253.661 1325.04 267.889 1323.58L267.481 1319.6ZM186.07 1318.44C172.142 1316.47 158.901 1313.6 146.386 1309.95L145.265 1313.78C157.967 1317.49 171.396 1320.41 185.51 1322.4L186.07 1318.44ZM108.347 1295.48C95.6372 1289.41 83.9755 1282.46 73.4263 1274.81L71.0784 1278.05C81.8285 1285.84 93.6996 1292.92 106.623 1299.09L108.347 1295.48ZM43.2294 1247.86C33.7881 1237.43 25.9645 1226.34 19.8567 1214.9L16.3281 1216.79C22.5981 1228.53 30.6146 1239.89 40.264 1250.54L43.2294 1247.86ZM6.1986 1177.02C3.59301 1163.55 3.33983 1150.06 5.5786 1136.98L1.63594 1136.31C-0.689133 1149.89 -0.419997 1163.87 2.27146 1177.78L6.1986 1177.02ZM19.7736 1099.63C26.4389 1088.87 35.2967 1078.77 46.4799 1069.69L43.9572 1066.58C32.4484 1075.94 23.2868 1086.36 16.373 1097.52L19.7736 1099.63ZM80.7697 1048.6C92.2032 1043.3 105 1038.73 119.212 1035.03L118.204 1031.16C103.781 1034.91 90.7572 1039.56 79.0875 1044.97L80.7697 1048.6ZM158.941 1027.52C165.608 1026.68 172.507 1026.01 179.643 1025.49L179.357 1021.51C172.153 1022.02 165.183 1022.71 158.442 1023.55L158.941 1027.52ZM179.739 1025.49C186.729 1024.64 193.681 1023.9 200.6 1023.25L200.221 1019.26C193.272 1019.92 186.287 1020.67 179.261 1021.51L179.739 1025.49ZM242.455 1020.08C256.508 1019.24 270.471 1018.58 284.41 1017.92L284.221 1013.93C270.286 1014.58 256.298 1015.25 242.216 1016.09L242.455 1020.08ZM326.415 1015.77C340.368 1014.94 354.346 1013.94 368.4 1012.59L368.018 1008.61C354.027 1009.95 340.099 1010.95 326.178 1011.78L326.415 1015.77ZM410.217 1007.42C423.887 1005.31 437.676 1002.72 451.631 999.492L450.73 995.595C436.881 998.797 423.189 1001.37 409.605 1003.47L410.217 1007.42ZM492.31 988.313C505.323 984.144 518.507 979.329 531.898 973.752L530.361 970.06C517.075 975.592 503.997 980.368 491.09 984.503L492.31 988.313ZM570.124 955.97C582.188 949.762 594.433 942.891 606.885 935.279L604.799 931.866C592.429 939.428 580.269 946.251 568.293 952.413L570.124 955.97ZM642.156 912.075C653.203 904.295 664.418 895.915 675.816 886.887L673.332 883.751C661.991 892.734 650.836 901.069 639.853 908.805L642.156 912.075ZM708.208 859.887C718.445 850.934 728.831 841.455 739.378 831.418L736.62 828.52C726.113 838.521 715.767 847.962 705.575 856.877L708.208 859.887ZM769.244 801.92C778.746 792.198 788.378 782.025 798.147 771.379L795.2 768.674C785.458 779.29 775.855 789.433 766.384 799.124L769.244 801.92ZM826.155 739.979C830.749 734.688 835.372 729.293 840.027 723.792L836.973 721.208C832.33 726.696 827.717 732.078 823.134 737.357L826.155 739.979ZM840.027 723.792C844.502 718.503 848.73 713.193 852.716 707.864L849.513 705.468C845.576 710.732 841.398 715.979 836.973 721.208L840.027 723.792ZM874.571 674.272C881.326 662.13 886.925 649.909 891.435 637.633L887.681 636.253C883.244 648.33 877.733 660.361 871.075 672.327L874.571 674.272ZM902.116 598.824C904.594 585.492 905.89 572.128 906.093 558.758L902.093 558.697C901.894 571.848 900.62 584.988 898.183 598.093L902.116 598.824ZM903.495 518.574C901.625 505.433 898.783 492.317 895.054 479.251L891.207 480.348C894.889 493.251 897.692 506.189 899.535 519.137L903.495 518.574ZM881.744 441.305C876.691 429.123 870.926 417.006 864.522 404.973L860.991 406.853C867.34 418.781 873.049 430.783 878.05 442.838L881.744 441.305ZM844.241 370.37C837.132 359.248 829.518 348.217 821.459 337.294L818.24 339.669C826.25 350.525 833.813 361.483 840.871 372.525L844.241 370.37ZM796.692 305.696C788.249 295.517 779.452 285.449 770.351 275.506L767.401 278.207C776.46 288.104 785.214 298.124 793.614 308.25L796.692 305.696ZM742.646 246.53C733.257 237.111 723.626 227.824 713.799 218.683L711.075 221.612C720.866 230.721 730.461 239.973 739.813 249.354L742.646 246.53ZM683.985 191.891C673.901 183.128 663.668 174.52 653.332 166.082L650.803 169.181C661.108 177.594 671.309 186.175 681.361 194.911L683.985 191.891ZM621.925 141.185C611.279 132.987 600.572 124.976 589.851 117.166L587.496 120.399C598.189 128.189 608.867 136.179 619.484 144.355L621.925 141.185ZM557.191 94.0069C546.059 86.3228 534.963 78.8711 523.954 71.6671L521.763 75.0141C532.745 82.2005 543.814 89.6338 554.918 97.2988L557.191 94.0069ZM490.107 50.11C478.492 42.9129 467.041 36.0222 455.82 29.4573L453.8 32.9098C464.992 39.4577 476.414 46.3309 488 53.5102L490.107 50.11ZM420.953 9.68197C415.018 6.42386 409.175 3.27299 403.436 0.232692L401.564 3.76731C407.285 6.79817 413.11 9.93964 419.028 13.1884L420.953 9.68197Z" fill="#313131"/>
</svg>
